<?xml version="1.0" encoding="UTF-8" standalone="no"?>
<svg
   xmlns:dc="http://purl.org/dc/elements/1.1/"
   xmlns:cc="http://creativecommons.org/ns#"
   xmlns:rdf="http://www.w3.org/1999/02/22-rdf-syntax-ns#"
   xmlns:svg="http://www.w3.org/2000/svg"
   xmlns="http://www.w3.org/2000/svg"
   xmlns:sodipodi="http://sodipodi.sourceforge.net/DTD/sodipodi-0.dtd"
   xmlns:inkscape="http://www.inkscape.org/namespaces/inkscape"
   version="1.1"
   x="0px"
   y="0px"
   viewBox="0 0 50 50"
   enable-background="new 0 0 100 100"
   xml:space="preserve"
   id="svg20"
   sodipodi:docname="404icon.svg"
   width="50"
   height="50"
   inkscape:version="0.92.1 r15371"><metadata
     id="metadata26"><rdf:RDF><cc:Work
         rdf:about=""><dc:format>image/svg+xml</dc:format><dc:type
           rdf:resource="http://purl.org/dc/dcmitype/StillImage" /><dc:title></dc:title></cc:Work></rdf:RDF></metadata><defs
     id="defs24" /><sodipodi:namedview
     pagecolor="#ffffff"
     bordercolor="#666666"
     borderopacity="1"
     objecttolerance="10"
     gridtolerance="10"
     guidetolerance="10"
     inkscape:pageopacity="0"
     inkscape:pageshadow="2"
     inkscape:window-width="1280"
     inkscape:window-height="768"
     id="namedview22"
     showgrid="false"
     inkscape:zoom="5.3400704"
     inkscape:cx="46.103328"
     inkscape:cy="29.996307"
     inkscape:window-x="0"
     inkscape:window-y="16"
     inkscape:window-maximized="1"
     inkscape:current-layer="svg20" /><path
     d="m 1.7924489,15.069988 h 9.3572491 c 0.858335,0 1.56056,0.701665 1.56056,1.55944 V 32.22549 c 0,0.85778 -0.702225,1.55944 -1.56056,1.55944 H 1.7924489 C 0.9352242,33.78493 0.233,33.08327 0.233,32.22549 V 16.629428 c 0,-0.857775 0.7022242,-1.55944 1.5594489,-1.55944 z"
     id="path2"
     inkscape:connector-curvature="0"
     style="clip-rule:evenodd;fill:#9d1b43;fill-opacity:0.78431373;fill-rule:evenodd;stroke-width:0.55555552" /><path
     d="M 6.4713509,34.56493 H 26.746409 c 0.85778,0 1.560004,0.70167 1.560004,1.55944 L 25.187515,48.601 c -0.208334,0.83222 -0.70278,1.56 -1.56056,1.56 h -9.357249 c -0.85778,0 -1.559448,-0.70222 -1.559448,-1.56 v -2.33944 c 0,-4.30665 -7.7983559,-3.4911 -7.7983559,-7.79775 v -2.33944 c 0,-0.85777 0.7022238,-1.55944 1.5594488,-1.55944 z"
     id="path4"
     inkscape:connector-curvature="0"
     style="clip-rule:evenodd;fill:#9d1b43;fill-opacity:0.78431373;fill-rule:evenodd;stroke-width:0.55555552" /><path
     d="M 15.439154,31.44605 H 27.13641 c 0.643335,0 1.169447,0.52611 1.169447,1.16944 v 0 c 0,0.64333 -0.526112,1.16944 -1.169447,1.16944 H 15.439154 c -0.643335,0 -1.169448,-0.52611 -1.169448,-1.16944 v 0 c 0,-0.64333 0.526113,-1.16944 1.169448,-1.16944 z"
     id="path6"
     inkscape:connector-curvature="0"
     style="clip-rule:evenodd;fill:#9d1b43;fill-opacity:0.78431373;fill-rule:evenodd;stroke-width:0.55555552" /><path
     d="m 14.201929,15.099432 v 0 c 0.427223,-0.03722 0.807224,0.281666 0.845002,0.708887 l 1.223337,13.983291 c 0.03722,0.42722 -0.281668,0.80722 -0.708891,0.845 v 0 c -0.427779,0.0372 -0.807225,-0.28167 -0.845003,-0.70889 L 13.492482,15.94443 c -0.03667,-0.427221 0.282223,-0.80722 0.709447,-0.844998 z"
     id="path8"
     inkscape:connector-curvature="0"
     style="clip-rule:evenodd;fill:#9d1b43;fill-opacity:0.78431373;fill-rule:evenodd;stroke-width:0.55555552" /><ellipse
     transform="matrix(-0.34209003,-0.93966718,0.93966845,-0.34208654,0,0)"
     cx="-17.385986"
     cy="32.735771"
     rx="5.0690508"
     ry="4.2240429"
     id="ellipse10"
     style="clip-rule:evenodd;fill:#9d1b43;fill-opacity:0.78431373;fill-rule:evenodd;stroke-width:0.55557454" /><path
     d="m 29.041971,14.042769 c -1.202782,-0.45611 -2.338896,-1.045553 -3.356677,-1.782773 l -0.200556,1.903328 c 1.682783,0.69722 3.6839,0.79722 5.691128,0.507221 3.071119,-0.443332 5.273903,-1.463885 7.767799,-3.13388 1.782783,-1.194441 4.197235,-0.71722 5.391682,1.066108 1.469449,2.202771 2.84612,5.192207 3.895567,8.419976 0.996114,3.062213 1.728338,6.396651 1.99945,9.535531 0.04722,0.57055 -0.544446,1.03888 -1.421115,1.36777 0.242223,2.34333 0.410001,4.73999 0.477224,7.06665 0.09611,3.33665 -0.02278,6.52275 -0.441668,9.1933 -0.196668,1.27167 -1.387227,2.14333 -2.658897,1.94611 -1.27167,-0.19667 -2.143339,-1.38722 -1.946672,-2.65888 0.371668,-2.37166 0.475001,-5.27277 0.386668,-8.35331 -0.06389,-2.20333 -0.227779,-4.50221 -0.465557,-6.76832 -0.953892,-0.17 -1.647783,-0.54166 -1.698338,-1.15444 -0.219445,-2.54332 -0.818336,-5.26109 -1.633338,-7.768863 -0.845003,-2.59777 -1.888339,-4.907763 -2.951675,-6.501092 -0.045,-0.06667 -0.08667,-0.134444 -0.126667,-0.202777 -1.851117,0.845553 -3.930011,1.494995 -6.026684,1.798328 -2.255006,0.325554 -4.55168,0.25611 -6.657797,-0.383888 l -0.284445,2.704992 c 1.400004,0.49111 2.318895,2.181105 2.120006,4.073877 l -6.204462,-0.65222 c 0.198889,-1.892772 1.450004,-3.35499 2.921119,-3.544434 l 0.314446,-2.991658 c -0.143334,-0.06 -0.284446,-0.123333 -0.425557,-0.189444 -0.971114,-0.458332 -1.387226,-1.617773 -0.928892,-2.589437 0.332224,-0.704442 1.032781,-1.116108 1.763339,-1.115552 l 0.258334,-2.461104 C 24.406402,11.195555 24.218068,11.01 24.036401,10.818334 23.300843,10.036114 23.338066,8.805006 24.120291,8.069453 24.375847,7.828898 24.678626,7.671676 24.99696,7.59501 l 0.135,-1.289441 c 0.02278,-0.213333 0.216111,-0.369443 0.428334,-0.347221 l 0.388335,0.04055 c 0.212778,0.02278 0.368889,0.215555 0.346667,0.428332 l -0.131111,1.247775 c 0.26,0.101666 0.501112,0.26111 0.705002,0.47722 1.322781,1.401107 3.252231,2.299994 5.348348,2.791659 1.843339,0.432221 3.787789,0.546665 5.571683,0.408888 -2.132229,1.341662 -4.112234,2.165549 -6.726686,2.543326 -0.65278,0.09722 -1.335004,0.152221 -2.020561,0.146666 z"
     id="path12"
     inkscape:connector-curvature="0"
     style="clip-rule:evenodd;fill:#9d1b43;fill-opacity:0.78431373;fill-rule:evenodd;stroke-width:0.55555552" /><path
     d="m 20.658058,24.65496 6.204462,0.65222 c 0.426668,0.045 0.738335,0.43055 0.693891,0.85666 v 0 c -0.04445,0.42667 -0.430557,0.73889 -0.857225,0.69445 l -6.204462,-0.65222 c -0.426668,-0.045 -0.738335,-0.43056 -0.693335,-0.857223 v 0 c 0.04444,-0.42611 0.430001,-0.738331 0.856669,-0.693887 z"
     id="path14"
     inkscape:connector-curvature="0"
     style="clip-rule:evenodd;fill:#9d1b43;fill-opacity:0.78431373;fill-rule:evenodd;stroke-width:0.55555552" /></svg>