<?xml version="1.0" encoding="UTF-8" standalone="no"?>
<svg
   xmlns:dc="http://purl.org/dc/elements/1.1/"
   xmlns:cc="http://creativecommons.org/ns#"
   xmlns:rdf="http://www.w3.org/1999/02/22-rdf-syntax-ns#"
   xmlns:svg="http://www.w3.org/2000/svg"
   xmlns="http://www.w3.org/2000/svg"
   xmlns:sodipodi="http://sodipodi.sourceforge.net/DTD/sodipodi-0.dtd"
   xmlns:inkscape="http://www.inkscape.org/namespaces/inkscape"
   version="1.1"
   x="0px"
   y="0px"
   viewBox="0 0 50 60"
   enable-background="new 0 0 100 100"
   xml:space="preserve"
   id="svg82"
   sodipodi:docname="404v2.svg"
   width="50"
   height="60"
   inkscape:version="0.92.1 r15371"><metadata
     id="metadata88"><rdf:RDF><cc:Work
         rdf:about=""><dc:format>image/svg+xml</dc:format><dc:type
           rdf:resource="http://purl.org/dc/dcmitype/StillImage" /><dc:title></dc:title></cc:Work></rdf:RDF></metadata><defs
     id="defs86" /><sodipodi:namedview
     pagecolor="#ffffff"
     bordercolor="#666666"
     borderopacity="1"
     objecttolerance="10"
     gridtolerance="10"
     guidetolerance="10"
     inkscape:pageopacity="0"
     inkscape:pageshadow="2"
     inkscape:window-width="1280"
     inkscape:window-height="768"
     id="namedview84"
     showgrid="false"
     inkscape:zoom="3.776"
     inkscape:cx="45.790865"
     inkscape:cy="50.547946"
     inkscape:window-x="0"
     inkscape:window-y="16"
     inkscape:window-maximized="1"
     inkscape:current-layer="g76" /><g
     display="none"
     id="g72"
     style="display:none"
     transform="translate(0,-65)"><g
       display="inline"
       id="g70"
       style="display:inline"><line
         stroke-miterlimit="10"
         x1="0.1"
         y1="83.300003"
         x2="16.799999"
         y2="100"
         id="line2"
         style="fill:#000000;stroke:#00a0be;stroke-width:0.5;stroke-miterlimit:10" /><line
         stroke-miterlimit="10"
         x1="0.1"
         y1="66.699997"
         x2="33.5"
         y2="100"
         id="line4"
         style="fill:#000000;stroke:#00a0be;stroke-width:0.5;stroke-miterlimit:10" /><line
         stroke-miterlimit="10"
         x1="0.1"
         y1="50"
         x2="50.099998"
         y2="100"
         id="line6"
         style="fill:#000000;stroke:#00a0be;stroke-width:0.5;stroke-miterlimit:10" /><line
         stroke-miterlimit="10"
         x1="0.1"
         y1="33.299999"
         x2="66.800003"
         y2="100"
         id="line8"
         style="fill:#000000;stroke:#00a0be;stroke-width:0.5;stroke-miterlimit:10" /><line
         stroke-miterlimit="10"
         x1="0.1"
         y1="16.700001"
         x2="83.5"
         y2="100"
         id="line10"
         style="fill:#000000;stroke:#00a0be;stroke-width:0.5;stroke-miterlimit:10" /><line
         stroke-miterlimit="10"
         x1="83.5"
         y1="0"
         x2="100.1"
         y2="16.700001"
         id="line12"
         style="fill:#000000;stroke:#00a0be;stroke-width:0.5;stroke-miterlimit:10" /><line
         stroke-miterlimit="10"
         x1="66.800003"
         y1="0"
         x2="99.599998"
         y2="33.299999"
         id="line14"
         style="fill:#000000;stroke:#00a0be;stroke-width:0.5;stroke-miterlimit:10" /><line
         stroke-miterlimit="10"
         x1="50.099998"
         y1="0"
         x2="100.1"
         y2="50"
         id="line16"
         style="fill:#000000;stroke:#00a0be;stroke-width:0.5;stroke-miterlimit:10" /><line
         stroke-miterlimit="10"
         x1="33.5"
         y1="0"
         x2="100.1"
         y2="66.699997"
         id="line18"
         style="fill:#000000;stroke:#00a0be;stroke-width:0.5;stroke-miterlimit:10" /><line
         stroke-miterlimit="10"
         x1="16.799999"
         y1="0"
         x2="100.1"
         y2="83.300003"
         id="line20"
         style="fill:#000000;stroke:#00a0be;stroke-width:0.5;stroke-miterlimit:10" /><g
         id="g44"><rect
           x="0.1"
           stroke-miterlimit="10"
           width="100"
           height="100"
           id="rect22"
           y="0"
           style="fill:#000000;stroke:#00a0be;stroke-width:0.5;stroke-miterlimit:10" /><line
           stroke-miterlimit="10"
           x1="0.1"
           y1="83.300003"
           x2="100.1"
           y2="83.300003"
           id="line24"
           style="fill:#000000;stroke:#00a0be;stroke-width:0.5;stroke-miterlimit:10" /><line
           stroke-miterlimit="10"
           x1="0.1"
           y1="66.699997"
           x2="100.1"
           y2="66.699997"
           id="line26"
           style="fill:#000000;stroke:#00a0be;stroke-width:0.5;stroke-miterlimit:10" /><line
           stroke-miterlimit="10"
           x1="0.1"
           y1="50"
           x2="100.1"
           y2="50"
           id="line28"
           style="fill:#000000;stroke:#00a0be;stroke-width:0.5;stroke-miterlimit:10" /><line
           stroke-miterlimit="10"
           x1="0.1"
           y1="33.299999"
           x2="100.1"
           y2="33.299999"
           id="line30"
           style="fill:#000000;stroke:#00a0be;stroke-width:0.5;stroke-miterlimit:10" /><line
           stroke-miterlimit="10"
           x1="0.1"
           y1="16.700001"
           x2="100.1"
           y2="16.700001"
           id="line32"
           style="fill:#000000;stroke:#00a0be;stroke-width:0.5;stroke-miterlimit:10" /><line
           stroke-miterlimit="10"
           x1="83.5"
           y1="0"
           x2="83.5"
           y2="100"
           id="line34"
           style="fill:#000000;stroke:#00a0be;stroke-width:0.5;stroke-miterlimit:10" /><line
           stroke-miterlimit="10"
           x1="66.800003"
           y1="0"
           x2="66.800003"
           y2="100"
           id="line36"
           style="fill:#000000;stroke:#00a0be;stroke-width:0.5;stroke-miterlimit:10" /><line
           stroke-miterlimit="10"
           x1="50.099998"
           y1="0"
           x2="50.099998"
           y2="100"
           id="line38"
           style="fill:#000000;stroke:#00a0be;stroke-width:0.5;stroke-miterlimit:10" /><line
           stroke-miterlimit="10"
           x1="33.5"
           y1="0"
           x2="33.5"
           y2="100"
           id="line40"
           style="fill:#000000;stroke:#00a0be;stroke-width:0.5;stroke-miterlimit:10" /><line
           stroke-miterlimit="10"
           x1="16.799999"
           y1="0"
           x2="16.799999"
           y2="100"
           id="line42"
           style="fill:#000000;stroke:#00a0be;stroke-width:0.5;stroke-miterlimit:10" /></g><line
         stroke-miterlimit="10"
         x1="0.1"
         y1="100"
         x2="100.1"
         y2="0"
         id="line46"
         style="fill:#000000;stroke:#00a0be;stroke-width:0.5;stroke-miterlimit:10" /><line
         stroke-miterlimit="10"
         x1="83.5"
         y1="0"
         x2="0.1"
         y2="83.300003"
         id="line48"
         style="fill:#000000;stroke:#00a0be;stroke-width:0.5;stroke-miterlimit:10" /><line
         stroke-miterlimit="10"
         x1="66.800003"
         y1="0"
         x2="0.1"
         y2="66.699997"
         id="line50"
         style="fill:#000000;stroke:#00a0be;stroke-width:0.5;stroke-miterlimit:10" /><line
         stroke-miterlimit="10"
         x1="50.099998"
         y1="0"
         x2="0.1"
         y2="50"
         id="line52"
         style="fill:#000000;stroke:#00a0be;stroke-width:0.5;stroke-miterlimit:10" /><line
         stroke-miterlimit="10"
         x1="33.5"
         y1="0"
         x2="0.1"
         y2="33.299999"
         id="line54"
         style="fill:#000000;stroke:#00a0be;stroke-width:0.5;stroke-miterlimit:10" /><line
         stroke-miterlimit="10"
         x1="16.799999"
         y1="0"
         x2="-0.1"
         y2="16.700001"
         id="line56"
         style="fill:#000000;stroke:#00a0be;stroke-width:0.5;stroke-miterlimit:10" /><line
         stroke-miterlimit="10"
         x1="100.1"
         y1="16.700001"
         x2="16.799999"
         y2="100"
         id="line58"
         style="fill:#000000;stroke:#00a0be;stroke-width:0.5;stroke-miterlimit:10" /><line
         stroke-miterlimit="10"
         x1="100.1"
         y1="33.299999"
         x2="33.5"
         y2="100"
         id="line60"
         style="fill:#000000;stroke:#00a0be;stroke-width:0.5;stroke-miterlimit:10" /><line
         stroke-miterlimit="10"
         x1="100.1"
         y1="50"
         x2="50.099998"
         y2="100"
         id="line62"
         style="fill:#000000;stroke:#00a0be;stroke-width:0.5;stroke-miterlimit:10" /><line
         stroke-miterlimit="10"
         x1="100.1"
         y1="66.699997"
         x2="66.800003"
         y2="100"
         id="line64"
         style="fill:#000000;stroke:#00a0be;stroke-width:0.5;stroke-miterlimit:10" /><line
         stroke-miterlimit="10"
         x1="100.1"
         y1="83.300003"
         x2="83.5"
         y2="100"
         id="line66"
         style="fill:#000000;stroke:#00a0be;stroke-width:0.5;stroke-miterlimit:10" /><line
         stroke-miterlimit="10"
         x1="0.1"
         y1="0"
         x2="100.1"
         y2="100"
         id="line68"
         style="fill:#000000;stroke:#00a0be;stroke-width:0.5;stroke-miterlimit:10" /></g></g><g
     id="g76"
     transform="translate(0,-65)"><path
       id="path74"
       d="m 25.175296,65.068 c -7.828794,0 -16.5143405,6.580702 -21.2850115,15.948596 -3.42509696,6.69135 -9.419494,24.423004 8.6845915,43.604874 l 0.36793,0.44653 h 24.46498 l 0.489778,-0.33544 C 55.756999,105.55068 49.763556,87.819033 46.338459,81.127681 41.567788,71.648264 32.881765,65.068 25.175296,65.068 Z m 0,2.23045 c 6.727869,0 14.678988,6.246569 18.960359,14.722285 3.180448,6.356783 8.685068,22.861685 -7.951118,40.816815 H 13.922361 C -2.7138265,104.65938 2.9126425,88.154908 6.0930895,81.909644 10.496786,73.322409 18.325102,67.29845 25.175296,67.29845 Z m -0.121848,8.588545 c -8.807393,0 -16.0240855,8.5868 -16.0240855,19.069918 0,10.483117 7.2166925,19.069917 16.0240855,19.069917 8.8074,0 16.024085,-8.5868 16.024085,-19.069917 0,-10.483118 -7.216685,-19.069918 -16.024085,-19.069918 z m 0,2.230449 c 7.461826,0 13.577587,7.5831 13.577587,16.839469 0,9.256367 -6.115767,16.839467 -13.577586,16.839467 -7.461818,0 -13.577586,-7.5831 -13.577586,-16.839467 0,-9.256369 6.115774,-16.839469 13.577585,-16.839469 z m -5.750704,5.798301 c -1.712548,0 -2.933887,1.672839 -2.933887,3.903288 0,2.230452 1.221339,3.903291 2.933887,3.903291 1.712549,0 2.936275,-1.672839 2.936275,-3.903291 0,-2.230449 -1.223726,-3.903288 -2.936275,-3.903288 z m 11.745101,0 c -1.712548,0 -2.936274,1.672839 -2.936274,3.903288 0,2.230452 1.223726,3.903291 2.936274,3.903291 1.712549,0 2.933887,-1.672839 2.933887,-3.903291 0,-2.230449 -1.221338,-3.903288 -2.933887,-3.903288 z M 24.9316,94.956913 c -1.834873,0 -3.304683,0.558049 -4.405607,1.561752 -2.446498,2.341973 -2.446498,6.579825 -2.446498,10.037025 v 1.78393 h 14.1916 v -1.67284 c 0,-4.01481 0,-7.806579 -2.446497,-10.037029 -1.100925,-1.003703 -2.813473,-1.561315 -4.892998,-1.672838 z m -5.017231,24.199517 c -0.978599,0 -1.834874,0.78066 -1.834874,1.67284 0,0.89218 0.856275,1.67284 1.834874,1.67284 0.978599,0 1.834873,-0.78066 1.834873,-1.67284 0,-0.89218 -0.856274,-1.67284 -1.834873,-1.67284 z m 11.133476,0 c -0.978599,0 -1.834873,0.78066 -1.834873,1.67284 0,0.89218 0.856274,1.67284 1.834873,1.67284 0.978599,0 1.834874,-0.78066 1.834874,-1.67284 0,-0.89218 -0.856275,-1.67284 -1.834874,-1.67284 z"
       style="fill:#9d1b43;fill-opacity:0.78431373;stroke:none;stroke-width:1.16798913;stroke-opacity:0.78431373"
       inkscape:connector-curvature="0" /></g></svg>